<mxfile host="app.diagrams.net" modified="2023-07-14T08:31:58.825Z" agent="Mozilla/5.0 (Windows NT 10.0; Win64; x64) AppleWebKit/537.36 (KHTML, like Gecko) Chrome/114.0.0.0 Safari/537.36" version="21.6.2" etag="6WEpdKvTQnvXoY2aMiz3" type="github">
  <diagram name="Page-1" id="6rNDWbhtoDhGrAqTnk-3">
    <mxGraphModel>
      <root>
        <mxCell id="0" />
        <mxCell id="1" parent="0" />
      </root>
    </mxGraphModel>
  </diagram>
</mxfile>
